<?xml version="1.0" encoding="utf-8"?>
<svg xmlns="http://www.w3.org/2000/svg" height="48px" viewBox="0 -960 960 960" width="48px" xmlns:bx="https://boxy-svg.com">
  <defs>
    <bx:export>
      <bx:file format="png"/>
    </bx:export>
  </defs>
  <path fill="#e3e3e3" d="M241.5-81.5v-170.88q-57.5-51.93-88.75-121.17-31.25-69.24-31.25-146.3 0-149.65 104.57-254.4Q330.63-879 480.02-879q124.48 0 220.58 73.45Q796.7-732.11 826-615l55 218q3.5 13.86-4.89 24.68T853-361.5h-94V-219q0 24.19-16.89 40.84-16.89 16.66-40.61 16.66H599v80h-57.5V-219h160v-200h114l-45-181.5Q746-698 664.75-759.75T480.04-821.5q-125.54 0-213.29 86.94Q179-647.63 179-522.46q0 64.92 26.32 123.14Q231.65-341.09 280.5-296l18.5 17.5v197h-57.5Z"/>
  <rect x="440" y="-740" width="80" height="380" rx="18" style="fill: rgb(227, 227, 227);"/>
  <rect x="300" y="-590" width="360" height="80" rx="18" style="fill: rgb(227, 227, 227);"/>
</svg>